<svg xmlns="http://www.w3.org/2000/svg" viewBox="0 0 32 32" width="32" height="32">
  <g fill="none" stroke="#0B3D91" stroke-width="1.4" stroke-linecap="round" stroke-linejoin="round">
    <path d="M16 3 L22 10 L10 10 Z"/>
    <path d="M11 10 L11 28 M21 10 L21 28 M11 10 L21 10 M11 28 L21 28"/>
    <circle cx="16" cy="15" r="3.2"/>
    <path d="M16 15 L17.6 16"/>
    <path d="M13 21 L19 21 M16 21 L16 24 M13 24 L11 26 M19 24 L21 26 M16 24 L16 27"/>
    <circle cx="11" cy="26" r="0.8" fill="#0B3D91" stroke="none"/>
    <circle cx="21" cy="26" r="0.8" fill="#0B3D91" stroke="none"/>
    <circle cx="16" cy="27" r="0.8" fill="#0B3D91" stroke="none"/>
  </g>
</svg>
